<svg xmlns="http://www.w3.org/2000/svg" xmlns:xlink="http://www.w3.org/1999/xlink" viewBox="0 0 960 910"><defs><style>.cls-1{fill:url(#Безымянный_градиент_490);}.cls-2{fill:url(#Безымянный_градиент_21);}.cls-3{fill:#2f4663;}.cls-3,.cls-5{opacity:0.8;}.cls-4{fill:#38607d;}.cls-5{fill:#2a607a;}.cls-6{fill:url(#Безымянный_градиент_21-2);}</style><linearGradient id="Безымянный_градиент_490" x1="480" y1="910" x2="480" gradientUnits="userSpaceOnUse"><stop offset="0" stop-color="#38647d"/><stop offset="0.85" stop-color="#2f4663"/></linearGradient><linearGradient id="Безымянный_градиент_21" x1="553.01" y1="580.42" x2="553.01" y2="474" gradientUnits="userSpaceOnUse"><stop offset="0" stop-color="#8fbcc8" stop-opacity="0"/><stop offset="1" stop-color="#8fbcc8" stop-opacity="0.07"/></linearGradient><linearGradient id="Безымянный_градиент_21-2" x1="356.43" y1="504" x2="356.43" y2="436" xlink:href="#Безымянный_градиент_21"/></defs><title>Ресурс 27</title><g id="Слой_2" data-name="Слой 2"><g id="Слой_1-2" data-name="Слой 1"><rect class="cls-1" width="960" height="910"/><path class="cls-2" d="M610.64,517.71h-15c.12-1.26.18-2.53.18-3.82a39.89,39.89,0,0,0-79.7-2.46,36.3,36.3,0,0,0-45.52,53.5,31.33,31.33,0,0,0,27,15.48h113A31.35,31.35,0,0,0,642,549.07h0A31.35,31.35,0,0,0,610.64,517.71Z"/><polygon class="cls-3" points="1 480 93 556 175 508 320 625 380 623 474 643 543 672 575 661 665 677 960 677 960 910 0 910 1 480"/><polygon class="cls-4" points="960 720 960 910 0 910 0 730 960 720"/><circle class="cls-5" cx="187.49" cy="415.66" r="3.57" transform="translate(-17.68 8.44) rotate(-2.46)"/><path class="cls-6" d="M393.26,463.93h-9.61c.08-.8.12-1.62.12-2.44a25.49,25.49,0,0,0-50.93-1.57,23.2,23.2,0,0,0-29.09,34.19A20,20,0,0,0,321,504h72.23a20,20,0,0,0,20-20h0A20,20,0,0,0,393.26,463.93Z"/><circle class="cls-5" cx="65.49" cy="451.66" r="3.57" transform="translate(-19.34 3.23) rotate(-2.46)"/><circle class="cls-5" cx="306" cy="511" r="4"/></g></g></svg>