<svg xmlns="http://www.w3.org/2000/svg" viewBox="0 0 372.98 790"><defs><style>.cls-1{fill:#29415e;}.cls-2{fill:#2a425f;}.cls-3{fill:#2c4461;}.cls-4{fill:#2b4361;}.cls-5{fill:#2c4460;}.cls-6{fill:#2e4664;}.cls-7{fill:#2f4764;}.cls-8{fill:#2a425e;}.cls-9{fill:#2a3f5a;}</style></defs><title>Главная_корабль_левая половина_1</title><g id="Слой_2" data-name="Слой 2"><g id="Слой_1-2" data-name="Слой 1"><path class="cls-1" d="M341.26,0l-4.14,57H98V98h57.44L238,180.56V181H73V331H39v73.35C13.89,421.53,0,433.17,0,433.17,50.83,532.05,96.89,735,108.81,790H373V0ZM169.56,98H238v68.42Z"/><rect class="cls-2" x="297.98" y="256" width="75" height="75"/><rect class="cls-2" x="147.98" y="256" width="75" height="75"/><rect class="cls-3" x="72.98" y="256" width="75" height="75"/><rect class="cls-4" x="222.98" y="256" width="75" height="75"/><rect class="cls-5" x="297.98" y="181" width="75" height="75"/><rect class="cls-4" x="147.98" y="181" width="75" height="75"/><rect class="cls-6" x="72.98" y="181" width="75" height="75"/><rect class="cls-7" x="38.98" y="331" width="334" height="96"/><path class="cls-8" d="M373,790V269.79C159,299.89,0,433.17,0,433.17,50.83,532.05,96.89,735,108.81,790Z"/><path class="cls-7" d="M25.47,489.1s139-115,347.51-143v20.24s-195.63,26-340.82,141.86Z"/><path class="cls-7" d="M204.09,588.49s16.25,65.2,20,98.51l-45.54.4s-13.24-58.4-23.81-75.06Z"/><path class="cls-9" d="M174.13,603.16,193.48,687h31.17s-5.37-33.32-8.6-49.44c-2.32-11.59-11.82-49.44-11.82-49.44Z"/><rect class="cls-6" x="222.98" y="181" width="75" height="75"/><path class="cls-1" d="M238,181H373V0H341.26l-4.14,57H98V98h57.44L238,180.56ZM169.56,98H238v68.42Z"/></g></g></svg>