<?xml version="1.0" encoding="UTF-8"?>
<svg width="191px" height="48px" viewBox="0 0 191 48" version="1.1" xmlns="http://www.w3.org/2000/svg" xmlns:xlink="http://www.w3.org/1999/xlink">
    <!-- Generator: Sketch 48.2 (47327) - http://www.bohemiancoding.com/sketch -->
    <title>logo_big</title>
    <desc>Created with Sketch.</desc>
    <defs>
        <rect id="path-1" x="0" y="0" width="320" height="57"></rect>
    </defs>
    <g id="Эспортируемые-элементы" stroke="none" stroke-width="1" fill="none" fill-rule="evenodd" transform="translate(-61.000000, -114.000000)">
        <g id="logo_big" transform="translate(60.000000, 110.000000)">
            <g id="Group-11-Copy-2">
                <mask id="mask-2" fill="white">
                    <use xlink:href="#path-1"></use>
                </mask>
                <use id="Mask" fill="#F8E71C" opacity="0" xlink:href="#path-1"></use>
                <g mask="url(#mask-2)" fill="#364F6B">
                    <g transform="translate(1.000000, -8.000000)">
                        <path d="M2.9965,56.48 C2.27282972,56.0813313 1.70516873,55.5288369 1.2935,54.8225 C0.881831275,54.1161631 0.676,53.3253377 0.676,52.45 C0.676,51.5746623 0.881831275,50.7838369 1.2935,50.0775 C1.70516873,49.3711631 2.27499636,48.8186687 3.003,48.42 C3.73100364,48.0213313 4.54566216,47.822 5.447,47.822 C6.12300338,47.822 6.74699714,47.9346655 7.319,48.16 C7.89100286,48.3853345 8.37633134,48.7146645 8.775,49.148 L8.164,49.759 C7.45332978,49.0396631 6.55633875,48.68 5.473,48.68 C4.75366307,48.68 4.09933628,48.844665 3.51,49.174 C2.92066372,49.503335 2.45916834,49.9539971 2.1255,50.526 C1.79183167,51.0980029 1.625,51.7393298 1.625,52.45 C1.625,53.1606702 1.79183167,53.8019971 2.1255,54.374 C2.45916834,54.9460029 2.92066372,55.396665 3.51,55.726 C4.09933628,56.055335 4.75366307,56.22 5.473,56.22 C6.56500546,56.22 7.46199649,55.8560036 8.164,55.128 L8.775,55.739 C8.37633134,56.1723355 7.88883622,56.5038322 7.3125,56.7335 C6.73616379,56.9631678 6.11000338,57.078 5.434,57.078 C4.53266216,57.078 3.72017029,56.8786687 2.9965,56.48 Z M16.64,53.867 L10.92,53.867 C10.9720003,54.5776702 11.2449975,55.1518311 11.739,55.5895 C12.2330025,56.0271689 12.8569962,56.246 13.611,56.246 C14.0356688,56.246 14.4256649,56.1701674 14.781,56.0185 C15.1363351,55.8668326 15.4439987,55.6436681 15.704,55.349 L16.224,55.947 C15.9206652,56.3110018 15.5415023,56.5883324 15.0865,56.779 C14.6314977,56.9696676 14.1310027,57.065 13.585,57.065 C12.8829965,57.065 12.2611694,56.9155015 11.7195,56.6165 C11.1778306,56.3174985 10.7553349,55.9036693 10.452,55.375 C10.1486652,54.8463307 9.997,54.2483367 9.997,53.581 C9.997,52.9136633 10.1421652,52.3156693 10.4325,51.787 C10.7228348,51.2583307 11.1214975,50.8466681 11.6285,50.552 C12.1355025,50.2573319 12.7053302,50.11 13.338,50.11 C13.9706698,50.11 14.5383308,50.2573319 15.041,50.552 C15.5436692,50.8466681 15.9379986,51.256164 16.224,51.7805 C16.5100014,52.304836 16.653,52.9049966 16.653,53.581 L16.64,53.867 Z M11.6805,51.5335 C11.2341644,51.9538354 10.980667,52.5019966 10.92,53.178 L15.769,53.178 C15.708333,52.5019966 15.4548356,51.9538354 15.0085,51.5335 C14.5621644,51.1131646 14.0053367,50.903 13.338,50.903 C12.67933,50.903 12.1268356,51.1131646 11.6805,51.5335 Z M23.959,50.5455 C24.4790026,50.8358348 24.8863319,51.2453307 25.181,51.774 C25.4756681,52.3026693 25.623,52.9049966 25.623,53.581 C25.623,54.2656701 25.4756681,54.8723307 25.181,55.401 C24.8863319,55.9296693 24.4811692,56.3391652 23.9655,56.6295 C23.4498308,56.9198348 22.8670032,57.065 22.217,57.065 C21.6623306,57.065 21.1618356,56.9501678 20.7155,56.7205 C20.2691644,56.4908322 19.9030014,56.1550022 19.617,55.713 L19.617,59.522 L18.694,59.522 L18.694,50.162 L19.578,50.162 L19.578,51.514 C19.8553347,51.0633311 20.2214977,50.7166679 20.6765,50.474 C21.1315023,50.2313321 21.6449971,50.11 22.217,50.11 C22.8583365,50.11 23.4389974,50.2551652 23.959,50.5455 Z M23.452,55.9145 C23.842002,55.6934989 24.1474989,55.3793354 24.3685,54.972 C24.5895011,54.5646646 24.7,54.1010026 24.7,53.581 C24.7,53.0609974 24.5895011,52.599502 24.3685,52.1965 C24.1474989,51.793498 23.842002,51.4793345 23.452,51.254 C23.061998,51.0286655 22.628669,50.916 22.152,50.916 C21.6666642,50.916 21.2311686,51.0286655 20.8455,51.254 C20.4598314,51.4793345 20.1565011,51.793498 19.9355,52.1965 C19.7144989,52.599502 19.604,53.0609974 19.604,53.581 C19.604,54.1010026 19.7144989,54.5646646 19.9355,54.972 C20.1565011,55.3793354 20.4598314,55.6934989 20.8455,55.9145 C21.2311686,56.1355011 21.6666642,56.246 22.152,56.246 C22.628669,56.246 23.061998,56.1355011 23.452,55.9145 Z M33.358,55.141 C33.358,55.739003 33.1370022,56.1983317 32.695,56.519 C32.2529978,56.8396683 31.5943377,57 30.719,57 L27.612,57 L27.612,50.162 L30.628,50.162 C31.4080039,50.162 32.0189978,50.3136651 32.461,50.617 C32.9030022,50.9203349 33.124,51.3536639 33.124,51.917 C33.124,52.2896685 33.0221677,52.6081653 32.8185,52.8725 C32.6148323,53.1368347 32.3310018,53.3339993 31.967,53.464 C32.894338,53.6806677 33.358,54.2396622 33.358,55.141 Z M28.509,53.204 L30.563,53.204 C31.0916693,53.204 31.4968319,53.1043343 31.7785,52.905 C32.0601681,52.7056657 32.201,52.4153352 32.201,52.034 C32.201,51.6526648 32.0601681,51.3666676 31.7785,51.176 C31.4968319,50.9853324 31.0916693,50.89 30.563,50.89 L28.509,50.89 L28.509,53.204 Z M32.006,55.986 C32.3006681,55.7953324 32.448,55.4963354 32.448,55.089 C32.448,54.6816646 32.313668,54.380501 32.045,54.1855 C31.776332,53.990499 31.3516696,53.893 30.771,53.893 L28.509,53.893 L28.509,56.272 L30.68,56.272 C31.2693363,56.272 31.7113319,56.1766676 32.006,55.986 Z M35.516,50.162 L36.439,50.162 L36.439,55.596 L41.002,50.162 L41.821,50.162 L41.821,57 L40.898,57 L40.898,51.566 L36.348,57 L35.516,57 L35.516,50.162 Z M45.5065,56.623 C44.9734973,56.3283319 44.5553349,55.9145027 44.252,55.3815 C43.9486651,54.8484973 43.797,54.2483367 43.797,53.581 C43.797,52.9136633 43.9486651,52.3156693 44.252,51.787 C44.5553349,51.2583307 44.9734973,50.8466681 45.5065,50.552 C46.0395027,50.2573319 46.6439966,50.11 47.32,50.11 C47.9093363,50.11 48.435831,50.2248322 48.8995,50.4545 C49.363169,50.6841678 49.729332,51.0199978 49.998,51.462 L49.309,51.93 C49.0836655,51.5919983 48.7976684,51.3385008 48.451,51.1695 C48.1043316,51.0004992 47.7273354,50.916 47.32,50.916 C46.8259975,50.916 46.3818353,51.0264989 45.9875,51.2475 C45.5931647,51.4685011 45.2855011,51.7826646 45.0645,52.19 C44.8434989,52.5973354 44.733,53.0609974 44.733,53.581 C44.733,54.1096693 44.8434989,54.575498 45.0645,54.9785 C45.2855011,55.381502 45.5931647,55.6934989 45.9875,55.9145 C46.3818353,56.1355011 46.8259975,56.246 47.32,56.246 C47.7273354,56.246 48.1043316,56.1636675 48.451,55.999 C48.7976684,55.8343325 49.0836655,55.5830017 49.309,55.245 L49.998,55.713 C49.729332,56.1550022 49.3610023,56.4908322 48.893,56.7205 C48.4249977,56.9501678 47.9006696,57.065 47.32,57.065 C46.6439966,57.065 46.0395027,56.9176681 45.5065,56.623 Z M62.829,50.162 L62.829,57 L61.984,57 L61.984,51.592 L59.215,56.168 L58.799,56.168 L56.03,51.579 L56.03,57 L55.185,57 L55.185,50.162 L56.121,50.162 L59.02,55.089 L61.971,50.162 L62.829,50.162 Z M66.495,56.6165 C65.9663307,56.3174985 65.5503349,55.9036693 65.247,55.375 C64.9436652,54.8463307 64.792,54.2483367 64.792,53.581 C64.792,52.9136633 64.9436652,52.3156693 65.247,51.787 C65.5503349,51.2583307 65.9663307,50.8466681 66.495,50.552 C67.0236693,50.2573319 67.61733,50.11 68.276,50.11 C68.93467,50.11 69.5283307,50.2573319 70.057,50.552 C70.5856693,50.8466681 70.9994985,51.2583307 71.2985,51.787 C71.5975015,52.3156693 71.747,52.9136633 71.747,53.581 C71.747,54.2483367 71.5975015,54.8463307 71.2985,55.375 C70.9994985,55.9036693 70.5856693,56.3174985 70.057,56.6165 C69.5283307,56.9155015 68.93467,57.065 68.276,57.065 C67.61733,57.065 67.0236693,56.9155015 66.495,56.6165 Z M69.5825,55.9145 C69.9681686,55.6934989 70.2693323,55.3793354 70.486,54.972 C70.7026678,54.5646646 70.811,54.1010026 70.811,53.581 C70.811,53.0609974 70.7026678,52.5973354 70.486,52.19 C70.2693323,51.7826646 69.9681686,51.4685011 69.5825,51.2475 C69.1968314,51.0264989 68.7613358,50.916 68.276,50.916 C67.7906642,50.916 67.3551686,51.0264989 66.9695,51.2475 C66.5838314,51.4685011 66.2805011,51.7826646 66.0595,52.19 C65.8384989,52.5973354 65.728,53.0609974 65.728,53.581 C65.728,54.1010026 65.8384989,54.5646646 66.0595,54.972 C66.2805011,55.3793354 66.5838314,55.6934989 66.9695,55.9145 C67.3551686,56.1355011 67.7906642,56.246 68.276,56.246 C68.7613358,56.246 69.1968314,56.1355011 69.5825,55.9145 Z M78.988,50.5455 C79.5080026,50.8358348 79.9153319,51.2453307 80.21,51.774 C80.5046681,52.3026693 80.652,52.9049966 80.652,53.581 C80.652,54.2656701 80.5046681,54.8723307 80.21,55.401 C79.9153319,55.9296693 79.5101692,56.3391652 78.9945,56.6295 C78.4788308,56.9198348 77.8960033,57.065 77.246,57.065 C76.6913306,57.065 76.1908356,56.9501678 75.7445,56.7205 C75.2981644,56.4908322 74.9320014,56.1550022 74.646,55.713 L74.646,59.522 L73.723,59.522 L73.723,50.162 L74.607,50.162 L74.607,51.514 C74.8843347,51.0633311 75.2504977,50.7166679 75.7055,50.474 C76.1605023,50.2313321 76.6739971,50.11 77.246,50.11 C77.8873365,50.11 78.4679974,50.2551652 78.988,50.5455 Z M78.481,55.9145 C78.871002,55.6934989 79.1764989,55.3793354 79.3975,54.972 C79.6185011,54.5646646 79.729,54.1010026 79.729,53.581 C79.729,53.0609974 79.6185011,52.599502 79.3975,52.1965 C79.1764989,51.793498 78.871002,51.4793345 78.481,51.254 C78.0909981,51.0286655 77.6576691,50.916 77.181,50.916 C76.6956642,50.916 76.2601686,51.0286655 75.8745,51.254 C75.4888314,51.4793345 75.1855011,51.793498 74.9645,52.1965 C74.7434989,52.599502 74.633,53.0609974 74.633,53.581 C74.633,54.1010026 74.7434989,54.5646646 74.9645,54.972 C75.1855011,55.3793354 75.4888314,55.6934989 75.8745,55.9145 C76.2601686,56.1355011 76.6956642,56.246 77.181,56.246 C77.6576691,56.246 78.0909981,56.1355011 78.481,55.9145 Z M83.6875,56.623 C83.1544973,56.3283319 82.7363349,55.9145027 82.433,55.3815 C82.1296652,54.8484973 81.978,54.2483367 81.978,53.581 C81.978,52.9136633 82.1296652,52.3156693 82.433,51.787 C82.7363349,51.2583307 83.1544973,50.8466681 83.6875,50.552 C84.2205027,50.2573319 84.8249966,50.11 85.501,50.11 C86.0903363,50.11 86.616831,50.2248322 87.0805,50.4545 C87.544169,50.6841678 87.910332,51.0199978 88.179,51.462 L87.49,51.93 C87.2646655,51.5919983 86.9786684,51.3385008 86.632,51.1695 C86.2853316,51.0004992 85.9083354,50.916 85.501,50.916 C85.0069975,50.916 84.5628353,51.0264989 84.1685,51.2475 C83.7741647,51.4685011 83.4665011,51.7826646 83.2455,52.19 C83.0244989,52.5973354 82.914,53.0609974 82.914,53.581 C82.914,54.1096693 83.0244989,54.575498 83.2455,54.9785 C83.4665011,55.381502 83.7741647,55.6934989 84.1685,55.9145 C84.5628353,56.1355011 85.0069975,56.246 85.501,56.246 C85.9083354,56.246 86.2853316,56.1636675 86.632,55.999 C86.9786684,55.8343325 87.2646655,55.5830017 87.49,55.245 L88.179,55.713 C87.910332,56.1550022 87.5420023,56.4908322 87.074,56.7205 C86.6059977,56.9501678 86.0816696,57.065 85.501,57.065 C84.8249966,57.065 84.2205027,56.9176681 83.6875,56.623 Z M92.443,53.958 L90.883,53.958 L90.883,57 L89.96,57 L89.96,50.162 L90.883,50.162 L90.883,53.165 L92.456,53.165 L94.861,50.162 L95.862,50.162 L93.171,53.477 L96.057,57 L94.965,57 L92.443,53.958 Z M97.513,50.162 L98.436,50.162 L98.436,55.596 L102.999,50.162 L103.818,50.162 L103.818,57 L102.895,57 L102.895,51.566 L98.345,57 L97.513,57 L97.513,50.162 Z M110.734,57 L108.563,54.14 L106.379,57 L105.339,57 L108.043,53.49 L105.469,50.162 L106.509,50.162 L108.563,52.84 L110.617,50.162 L111.631,50.162 L109.057,53.49 L111.787,57 L110.734,57 Z M122.837,50.162 L122.837,57 L121.914,57 L121.914,50.981 L117.624,50.981 L117.624,57 L116.701,57 L116.701,50.162 L122.837,50.162 Z M131.443,53.867 L125.723,53.867 C125.775,54.5776702 126.047998,55.1518311 126.542,55.5895 C127.036002,56.0271689 127.659996,56.246 128.414,56.246 C128.838669,56.246 129.228665,56.1701674 129.584,56.0185 C129.939335,55.8668326 130.246999,55.6436681 130.507,55.349 L131.027,55.947 C130.723665,56.3110018 130.344502,56.5883324 129.8895,56.779 C129.434498,56.9696676 128.934003,57.065 128.388,57.065 C127.685996,57.065 127.064169,56.9155015 126.5225,56.6165 C125.980831,56.3174985 125.558335,55.9036693 125.255,55.375 C124.951665,54.8463307 124.8,54.2483367 124.8,53.581 C124.8,52.9136633 124.945165,52.3156693 125.2355,51.787 C125.525835,51.2583307 125.924497,50.8466681 126.4315,50.552 C126.938503,50.2573319 127.50833,50.11 128.141,50.11 C128.77367,50.11 129.341331,50.2573319 129.844,50.552 C130.346669,50.8466681 130.740999,51.256164 131.027,51.7805 C131.313001,52.304836 131.456,52.9049966 131.456,53.581 L131.443,53.867 Z M126.4835,51.5335 C126.037164,51.9538354 125.783667,52.5019966 125.723,53.178 L130.572,53.178 C130.511333,52.5019966 130.257836,51.9538354 129.8115,51.5335 C129.365164,51.1131646 128.808337,50.903 128.141,50.903 C127.48233,50.903 126.929836,51.1131646 126.4835,51.5335 Z M138.762,50.5455 C139.282003,50.8358348 139.689332,51.2453307 139.984,51.774 C140.278668,52.3026693 140.426,52.9049966 140.426,53.581 C140.426,54.2656701 140.278668,54.8723307 139.984,55.401 C139.689332,55.9296693 139.284169,56.3391652 138.7685,56.6295 C138.252831,56.9198348 137.670003,57.065 137.02,57.065 C136.465331,57.065 135.964836,56.9501678 135.5185,56.7205 C135.072164,56.4908322 134.706001,56.1550022 134.42,55.713 L134.42,59.522 L133.497,59.522 L133.497,50.162 L134.381,50.162 L134.381,51.514 C134.658335,51.0633311 135.024498,50.7166679 135.4795,50.474 C135.934502,50.2313321 136.447997,50.11 137.02,50.11 C137.661337,50.11 138.241997,50.2551652 138.762,50.5455 Z M138.255,55.9145 C138.645002,55.6934989 138.950499,55.3793354 139.1715,54.972 C139.392501,54.5646646 139.503,54.1010026 139.503,53.581 C139.503,53.0609974 139.392501,52.599502 139.1715,52.1965 C138.950499,51.793498 138.645002,51.4793345 138.255,51.254 C137.864998,51.0286655 137.431669,50.916 136.955,50.916 C136.469664,50.916 136.034169,51.0286655 135.6485,51.254 C135.262831,51.4793345 134.959501,51.793498 134.7385,52.1965 C134.517499,52.599502 134.407,53.0609974 134.407,53.581 C134.407,54.1010026 134.517499,54.5646646 134.7385,54.972 C134.959501,55.3793354 135.262831,55.6934989 135.6485,55.9145 C136.034169,56.1355011 136.469664,56.246 136.955,56.246 C137.431669,56.246 137.864998,56.1355011 138.255,55.9145 Z M148.395,53.867 L142.675,53.867 C142.727,54.5776702 142.999998,55.1518311 143.494,55.5895 C143.988002,56.0271689 144.611996,56.246 145.366,56.246 C145.790669,56.246 146.180665,56.1701674 146.536,56.0185 C146.891335,55.8668326 147.198999,55.6436681 147.459,55.349 L147.979,55.947 C147.675665,56.3110018 147.296502,56.5883324 146.8415,56.779 C146.386498,56.9696676 145.886003,57.065 145.34,57.065 C144.637996,57.065 144.016169,56.9155015 143.4745,56.6165 C142.932831,56.3174985 142.510335,55.9036693 142.207,55.375 C141.903665,54.8463307 141.752,54.2483367 141.752,53.581 C141.752,52.9136633 141.897165,52.3156693 142.1875,51.787 C142.477835,51.2583307 142.876497,50.8466681 143.3835,50.552 C143.890503,50.2573319 144.46033,50.11 145.093,50.11 C145.72567,50.11 146.293331,50.2573319 146.796,50.552 C147.298669,50.8466681 147.692999,51.256164 147.979,51.7805 C148.265001,52.304836 148.408,52.9049966 148.408,53.581 L148.395,53.867 Z M143.4355,51.5335 C142.989164,51.9538354 142.735667,52.5019966 142.675,53.178 L147.524,53.178 C147.463333,52.5019966 147.209836,51.9538354 146.7635,51.5335 C146.317164,51.1131646 145.760337,50.903 145.093,50.903 C144.43433,50.903 143.881836,51.1131646 143.4355,51.5335 Z M156.195,55.141 C156.195,55.739003 155.974002,56.1983317 155.532,56.519 C155.089998,56.8396683 154.431338,57 153.556,57 L150.449,57 L150.449,50.162 L153.465,50.162 C154.245004,50.162 154.855998,50.3136651 155.298,50.617 C155.740002,50.9203349 155.961,51.3536639 155.961,51.917 C155.961,52.2896685 155.859168,52.6081653 155.6555,52.8725 C155.451832,53.1368347 155.168002,53.3339993 154.804,53.464 C155.731338,53.6806677 156.195,54.2396622 156.195,55.141 Z M151.346,53.204 L153.4,53.204 C153.928669,53.204 154.333832,53.1043343 154.6155,52.905 C154.897168,52.7056657 155.038,52.4153352 155.038,52.034 C155.038,51.6526648 154.897168,51.3666676 154.6155,51.176 C154.333832,50.9853324 153.928669,50.89 153.4,50.89 L151.346,50.89 L151.346,53.204 Z M154.843,55.986 C155.137668,55.7953324 155.285,55.4963354 155.285,55.089 C155.285,54.6816646 155.150668,54.380501 154.882,54.1855 C154.613332,53.990499 154.18867,53.893 153.608,53.893 L151.346,53.893 L151.346,56.272 L153.517,56.272 C154.106336,56.272 154.548332,56.1766676 154.843,55.986 Z M159.393,56.6165 C158.864331,56.3174985 158.448335,55.9036693 158.145,55.375 C157.841665,54.8463307 157.69,54.2483367 157.69,53.581 C157.69,52.9136633 157.841665,52.3156693 158.145,51.787 C158.448335,51.2583307 158.864331,50.8466681 159.393,50.552 C159.921669,50.2573319 160.51533,50.11 161.174,50.11 C161.83267,50.11 162.426331,50.2573319 162.955,50.552 C163.483669,50.8466681 163.897499,51.2583307 164.1965,51.787 C164.495501,52.3156693 164.645,52.9136633 164.645,53.581 C164.645,54.2483367 164.495501,54.8463307 164.1965,55.375 C163.897499,55.9036693 163.483669,56.3174985 162.955,56.6165 C162.426331,56.9155015 161.83267,57.065 161.174,57.065 C160.51533,57.065 159.921669,56.9155015 159.393,56.6165 Z M162.4805,55.9145 C162.866169,55.6934989 163.167332,55.3793354 163.384,54.972 C163.600668,54.5646646 163.709,54.1010026 163.709,53.581 C163.709,53.0609974 163.600668,52.5973354 163.384,52.19 C163.167332,51.7826646 162.866169,51.4685011 162.4805,51.2475 C162.094831,51.0264989 161.659336,50.916 161.174,50.916 C160.688664,50.916 160.253169,51.0264989 159.8675,51.2475 C159.481831,51.4685011 159.178501,51.7826646 158.9575,52.19 C158.736499,52.5973354 158.626,53.0609974 158.626,53.581 C158.626,54.1010026 158.736499,54.5646646 158.9575,54.972 C159.178501,55.3793354 159.481831,55.6934989 159.8675,55.9145 C160.253169,56.1355011 160.688664,56.246 161.174,56.246 C161.659336,56.246 162.094831,56.1355011 162.4805,55.9145 Z M171.0735,54.023 C171.337835,54.3003347 171.47,54.6383313 171.47,55.037 C171.47,55.4356687 171.333501,55.7909984 171.0605,56.103 C170.787499,56.4150016 170.417002,56.6554992 169.949,56.8245 C169.480998,56.9935008 168.965336,57.078 168.402,57.078 C167.907998,57.078 167.422669,57.0065007 166.946,56.8635 C166.469331,56.7204993 166.053335,56.5103347 165.698,56.233 L166.01,55.544 C166.322002,55.7780012 166.685998,55.9599993 167.102,56.09 C167.518002,56.2200007 167.938331,56.285 168.363,56.285 C168.99567,56.285 169.513498,56.1658345 169.9165,55.9275 C170.319502,55.6891655 170.521,55.3663354 170.521,54.959 C170.521,54.5949982 170.356335,54.3111677 170.027,54.1075 C169.697665,53.9038323 169.247003,53.802 168.675,53.802 L167.505,53.802 L167.505,53.126 L168.623,53.126 C169.134336,53.126 169.545998,53.028501 169.858,52.8335 C170.170002,52.638499 170.326,52.376335 170.326,52.047 C170.326,51.6829982 170.150502,51.397001 169.7995,51.189 C169.448498,50.980999 168.991336,50.877 168.428,50.877 C167.69133,50.877 166.963337,51.0633315 166.244,51.436 L165.984,50.721 C166.798671,50.2963312 167.643662,50.084 168.519,50.084 C169.039003,50.084 169.509165,50.1598326 169.9295,50.3115 C170.349835,50.4631674 170.679165,50.6776653 170.9175,50.955 C171.155835,51.2323347 171.275,51.5529982 171.275,51.917 C171.275,52.2636684 171.155835,52.571332 170.9175,52.84 C170.679165,53.108668 170.356335,53.3079993 169.949,53.438 C170.434336,53.5506672 170.809165,53.7456653 171.0735,54.023 Z M174.603,56.6165 C174.074331,56.3174985 173.658335,55.9036693 173.355,55.375 C173.051665,54.8463307 172.9,54.2483367 172.9,53.581 C172.9,52.9136633 173.051665,52.3156693 173.355,51.787 C173.658335,51.2583307 174.074331,50.8466681 174.603,50.552 C175.131669,50.2573319 175.72533,50.11 176.384,50.11 C177.04267,50.11 177.636331,50.2573319 178.165,50.552 C178.693669,50.8466681 179.107499,51.2583307 179.4065,51.787 C179.705501,52.3156693 179.855,52.9136633 179.855,53.581 C179.855,54.2483367 179.705501,54.8463307 179.4065,55.375 C179.107499,55.9036693 178.693669,56.3174985 178.165,56.6165 C177.636331,56.9155015 177.04267,57.065 176.384,57.065 C175.72533,57.065 175.131669,56.9155015 174.603,56.6165 Z M177.6905,55.9145 C178.076169,55.6934989 178.377332,55.3793354 178.594,54.972 C178.810668,54.5646646 178.919,54.1010026 178.919,53.581 C178.919,53.0609974 178.810668,52.5973354 178.594,52.19 C178.377332,51.7826646 178.076169,51.4685011 177.6905,51.2475 C177.304831,51.0264989 176.869336,50.916 176.384,50.916 C175.898664,50.916 175.463169,51.0264989 175.0775,51.2475 C174.691831,51.4685011 174.388501,51.7826646 174.1675,52.19 C173.946499,52.5973354 173.836,53.0609974 173.836,53.581 C173.836,54.1010026 173.946499,54.5646646 174.1675,54.972 C174.388501,55.3793354 174.691831,55.6934989 175.0775,55.9145 C175.463169,56.1355011 175.898664,56.246 176.384,56.246 C176.869336,56.246 177.304831,56.1355011 177.6905,55.9145 Z M184.314,53.958 L182.754,53.958 L182.754,57 L181.831,57 L181.831,50.162 L182.754,50.162 L182.754,53.165 L184.327,53.165 L186.732,50.162 L187.733,50.162 L185.042,53.477 L187.928,57 L186.836,57 L184.314,53.958 Z" id="Cервис-морских-перев-Copy" opacity="0.800000012"></path>
                        <path d="M2.484,12.0960011 L10.44,12.0960011 L16.452,29.7720011 L16.524,29.7720011 L22.212,12.0960011 L30.168,12.0960011 L30.168,37.8000011 L24.876,37.8000011 L24.876,19.5840011 L24.804,19.5840011 L18.504,37.8000011 L14.148,37.8000011 L7.848,19.7640011 L7.776,19.7640011 L7.776,37.8000011 L2.484,37.8000011 L2.484,12.0960011 Z M45.7698463,27.8640011 L52.4298463,27.8640011 L49.1898463,18.4320011 L49.1178463,18.4320011 L45.7698463,27.8640011 Z M46.3098463,12.0960011 L52.1058463,12.0960011 L61.7178463,37.8000011 L55.8498463,37.8000011 L53.9058463,32.0760011 L44.2938463,32.0760011 L42.2778463,37.8000011 L36.5898463,37.8000011 L46.3098463,12.0960011 Z M73.7556925,23.7240011 L79.9476925,23.7240011 C81.243699,23.7240011 82.2156893,23.436004 82.8636925,22.8600011 C83.5116958,22.2839983 83.8356925,21.3480076 83.8356925,20.0520011 C83.8356925,18.8039949 83.5116958,17.898004 82.8636925,17.3340011 C82.2156893,16.7699983 81.243699,16.4880011 79.9476925,16.4880011 L73.7556925,16.4880011 L73.7556925,23.7240011 Z M68.1036925,12.0960011 L81.9636925,12.0960011 C83.1156983,12.0960011 84.1536879,12.2819993 85.0776925,12.6540011 C86.0016971,13.026003 86.7936892,13.5359979 87.4536925,14.1840011 C88.1136958,14.8320044 88.6176908,15.5819969 88.9656925,16.4340011 C89.3136943,17.2860054 89.4876925,18.2039962 89.4876925,19.1880011 C89.4876925,20.7000087 89.1696957,22.0079956 88.5336925,23.1120011 C87.8976893,24.2160067 86.8596997,25.0559983 85.4196925,25.6320011 L85.4196925,25.7040011 C86.115696,25.8960021 86.6916902,26.1899992 87.1476925,26.5860011 C87.6036948,26.9820031 87.9756911,27.4499984 88.2636925,27.9900011 C88.551694,28.5300038 88.7616919,29.1239979 88.8936925,29.7720011 C89.0256932,30.4200044 89.1156923,31.0679979 89.1636925,31.7160011 C89.1876926,32.1240032 89.2116924,32.6039984 89.2356925,33.1560011 C89.2596926,33.7080039 89.3016922,34.2719983 89.3616925,34.8480011 C89.4216928,35.424004 89.5176919,35.9699986 89.6496925,36.4860011 C89.7816932,37.0020037 89.9796912,37.4399993 90.2436925,37.8000011 L84.5916925,37.8000011 C84.279691,36.9839971 84.0876929,36.0120068 84.0156925,34.8840011 C83.9436922,33.7559955 83.8356932,32.6760063 83.6916925,31.6440011 C83.4996916,30.2999944 83.0916956,29.3160043 82.4676925,28.6920011 C81.8436894,28.067998 80.8236996,27.7560011 79.4076925,27.7560011 L73.7556925,27.7560011 L73.7556925,37.8000011 L68.1036925,37.8000011 L68.1036925,12.0960011 Z M98.2495388,12.0960011 L103.901539,12.0960011 L103.901539,37.8000011 L98.2495388,37.8000011 L98.2495388,12.0960011 Z M113.023385,12.0960011 L118.639385,12.0960011 L129.367385,29.3400011 L129.439385,29.3400011 L129.439385,12.0960011 L134.731385,12.0960011 L134.731385,37.8000011 L129.079385,37.8000011 L118.387385,20.5920011 L118.315385,20.5920011 L118.315385,37.8000011 L113.023385,37.8000011 L113.023385,12.0960011 Z M143.853231,12.0960011 L163.077231,12.0960011 L163.077231,16.8480011 L149.505231,16.8480011 L149.505231,22.3560011 L161.961231,22.3560011 L161.961231,26.7480011 L149.505231,26.7480011 L149.505231,33.0480011 L163.365231,33.0480011 L163.365231,37.8000011 L143.853231,37.8000011 L143.853231,12.0960011 Z M177.023078,16.8480011 L169.319078,16.8480011 L169.319078,12.0960011 L190.379078,12.0960011 L190.379078,16.8480011 L182.675078,16.8480011 L182.675078,37.8000011 L177.023078,37.8000011 L177.023078,16.8480011 Z" id="MARINET-Copy"></path>
                    </g>
                </g>
            </g>
        </g>
    </g>
</svg>