<?xml version="1.0" encoding="UTF-8"?>
<svg width="129px" height="33px" viewBox="0 0 129 33" version="1.1" xmlns="http://www.w3.org/2000/svg" xmlns:xlink="http://www.w3.org/1999/xlink">
    <!-- Generator: Sketch 48.2 (47327) - http://www.bohemiancoding.com/sketch -->
    <title>logo_small</title>
    <desc>Created with Sketch.</desc>
    <defs>
        <rect id="path-1" x="0" y="0" width="174" height="44"></rect>
    </defs>
    <g id="Эспортируемые-элементы" stroke="none" stroke-width="1" fill="none" fill-rule="evenodd" transform="translate(-60.000000, -225.000000)">
        <g id="logo_small" transform="translate(60.000000, 216.000000)">
            <g id="Group-11-Copy-2">
                <mask id="mask-2" fill="white">
                    <use xlink:href="#path-1"></use>
                </mask>
                <use id="Mask" fill="#D8D8D8" opacity="0" xlink:href="#path-1"></use>
                <g mask="url(#mask-2)">
                    <g transform="translate(0.000000, 7.000000)">
                        <g id="Group-11-Copy-2" stroke-width="1" fill="none" transform="translate(0.975782, 0.148356)"></g>
                        <path d="M2.03222156,32.270878 C1.53558076,31.9972795 1.1460061,31.6181133 0.863485889,31.1333681 C0.580965676,30.6486229 0.439707688,30.1058949 0.439707688,29.5051677 C0.439707688,28.9044405 0.580965676,28.3617124 0.863485889,27.8769672 C1.1460061,27.392222 1.53706769,27.0130558 2.03668238,26.7394573 C2.53629708,26.4658588 3.09538132,26.3290616 3.7139519,26.3290616 C4.17787982,26.3290616 4.60611457,26.4063817 4.99866897,26.5610244 C5.39122337,26.715667 5.72429484,26.9416798 5.99789336,27.2390695 L5.57857598,27.6583869 C5.09085688,27.16472 4.47526943,26.9178902 3.73179519,26.9178902 C3.23812829,26.9178902 2.78907658,27.0308966 2.38462659,27.2569128 C1.9801766,27.482929 1.66346132,27.7922096 1.43447126,28.184764 C1.20548119,28.5773184 1.09098787,29.0174486 1.09098787,29.5051677 C1.09098787,29.9928868 1.20548119,30.4330169 1.43447126,30.8255713 C1.66346132,31.2181257 1.9801766,31.5274064 2.38462659,31.7534226 C2.78907658,31.9794387 3.23812829,32.0924451 3.73179519,32.0924451 C4.48121723,32.0924451 5.09680467,31.8426415 5.57857598,31.3430268 L5.99789336,31.7623442 C5.72429484,32.0597339 5.38973644,32.2872336 4.99420815,32.4448502 C4.59867985,32.6024667 4.16895818,32.6812738 3.70503025,32.6812738 C3.08645968,32.6812738 2.52886236,32.5444766 2.03222156,32.270878 Z M11.3954894,30.4776271 L7.46996501,30.4776271 C7.50565177,30.9653462 7.69300447,31.3593817 8.03202872,31.6597453 C8.37105298,31.9601089 8.79928772,32.1102884 9.3167458,32.1102884 C9.6081877,32.1102884 9.87583442,32.058246 10.119694,31.9541596 C10.3635535,31.8500732 10.574697,31.6969198 10.7531309,31.4946948 L11.1099967,31.9050905 C10.9018239,32.1548979 10.6416118,32.3452244 10.3293527,32.4760759 C10.0170935,32.6069274 9.67361353,32.6723521 9.29890251,32.6723521 C8.81713119,32.6723521 8.39038338,32.5697542 8.01864626,32.3645553 C7.64690913,32.1593564 7.35695853,31.8753535 7.14878574,31.5125381 C6.94061295,31.1497227 6.83652812,30.7393311 6.83652812,30.2813509 C6.83652812,29.8233708 6.93615217,29.4129792 7.13540327,29.0501637 C7.33465437,28.6873483 7.60824878,28.4048323 7.95619473,28.2026073 C8.30414068,28.0003823 8.69520227,27.8992713 9.12939122,27.8992713 C9.56358018,27.8992713 9.95315485,28.0003823 10.2981269,28.2026073 C10.6430989,28.4048323 10.9137195,28.6858614 11.1099967,29.0457029 C11.3062739,29.4055444 11.404411,29.817423 11.404411,30.2813509 L11.3954894,30.4776271 Z M7.99188132,28.8761916 C7.68556993,29.1646596 7.51159956,29.5408519 7.46996501,30.0047799 L10.7977391,30.0047799 C10.7561045,29.5408519 10.5821342,29.1646596 10.2758228,28.8761916 C9.96951139,28.5877236 9.58737136,28.4434918 9.12939122,28.4434918 C8.67735888,28.4434918 8.29819271,28.5877236 7.99188132,28.8761916 Z M16.4183763,28.1981465 C16.7752439,28.3973976 17.054786,28.6784266 17.257011,29.0412421 C17.459236,29.4040575 17.560347,29.817423 17.560347,30.2813509 C17.560347,30.7512266 17.459236,31.167566 17.257011,31.5303814 C17.054786,31.8931968 16.7767308,32.1742259 16.4228371,32.373477 C16.0689434,32.5727281 15.6689602,32.6723521 15.2228757,32.6723521 C14.8422169,32.6723521 14.4987369,32.593545 14.1924255,32.4359285 C13.8861141,32.278312 13.6348236,32.0478384 13.4385464,31.7445009 L13.4385464,34.3585433 L12.8051095,34.3585433 L12.8051095,27.9349579 L13.4117815,27.9349579 L13.4117815,28.8628091 C13.6021109,28.5535239 13.8534014,28.3156157 14.1656606,28.1490774 C14.4779198,27.9825392 14.8303213,27.8992713 15.2228757,27.8992713 C15.6630124,27.8992713 16.0615086,27.9988954 16.4183763,28.1981465 Z M16.0704321,31.8827864 C16.3380828,31.7311177 16.5477394,31.5155134 16.6994081,31.2359671 C16.8510769,30.9564208 16.9269101,30.6382186 16.9269101,30.2813509 C16.9269101,29.9244833 16.8510769,29.607768 16.6994081,29.3311956 C16.5477394,29.0546232 16.3380828,28.8390189 16.0704321,28.6843762 C15.8027813,28.5297336 15.5053961,28.4524134 15.1782674,28.4524134 C14.845191,28.4524134 14.5463188,28.5297336 14.281642,28.6843762 C14.0169652,28.8390189 13.8087955,29.0546232 13.6571267,29.3311956 C13.505458,29.607768 13.4296248,29.9244833 13.4296248,30.2813509 C13.4296248,30.6382186 13.505458,30.9564208 13.6571267,31.2359671 C13.8087955,31.5155134 14.0169652,31.7311177 14.281642,31.8827864 C14.5463188,32.0344552 14.845191,32.1102884 15.1782674,32.1102884 C15.5053961,32.1102884 15.8027813,32.0344552 16.0704321,31.8827864 Z M22.8687266,31.3519485 C22.8687266,31.7623463 22.7170601,32.0775746 22.4137226,32.297643 C22.1103851,32.5177114 21.6583596,32.6277439 21.0576324,32.6277439 L18.9253589,32.6277439 L18.9253589,27.9349579 L20.9951809,27.9349579 C21.5304823,27.9349579 21.9497955,28.0390428 22.253133,28.2472155 C22.5564705,28.4553883 22.708137,28.7527736 22.708137,29.1393802 C22.708137,29.3951353 22.6382514,29.6137135 22.4984783,29.7951212 C22.3587051,29.9765289 22.1639178,30.1118392 21.9141104,30.2010561 C22.5505244,30.3497509 22.8687266,30.7333779 22.8687266,31.3519485 Z M19.5409525,30.0226232 L20.9505726,30.0226232 C21.3133881,30.0226232 21.5914433,29.9542246 21.7847466,29.8174253 C21.9780499,29.680626 22.0747001,29.4813779 22.0747001,29.219675 C22.0747001,28.9579721 21.9780499,28.7616978 21.7847466,28.6308463 C21.5914433,28.4999949 21.3133881,28.4345701 20.9505726,28.4345701 L19.5409525,28.4345701 L19.5409525,30.0226232 Z M21.9408754,31.9318555 C22.1431004,31.801004 22.2442113,31.5958082 22.2442113,31.3162619 C22.2442113,31.0367156 22.1520219,30.8300328 21.9676403,30.6962075 C21.7832587,30.5623821 21.4918212,30.4954704 21.093319,30.4954704 L19.5409525,30.4954704 L19.5409525,32.1281317 L21.0308674,32.1281317 C21.4353174,32.1281317 21.7386504,32.062707 21.9408754,31.9318555 Z M24.3497199,27.9349579 L24.9831568,27.9349579 L24.9831568,31.6642061 L28.1146546,27.9349579 L28.6767184,27.9349579 L28.6767184,32.6277439 L28.0432815,32.6277439 L28.0432815,28.8984957 L24.9207052,32.6277439 L24.3497199,32.6277439 L24.3497199,27.9349579 Z M31.2060051,32.3690162 C30.8402158,32.1667912 30.553239,31.8827883 30.3450662,31.5169989 C30.1368934,31.1512096 30.0328086,30.7393311 30.0328086,30.2813509 C30.0328086,29.8233708 30.1368934,29.4129792 30.3450662,29.0501637 C30.553239,28.6873483 30.8402158,28.4048323 31.2060051,28.2026073 C31.5717944,28.0003823 31.9866468,27.8992713 32.4505748,27.8992713 C32.8550248,27.8992713 33.2163478,27.9780784 33.5345548,28.135695 C33.8527618,28.2933115 34.1040523,28.5237851 34.2884339,28.8271226 L33.8155867,29.1483018 C33.660944,28.9163379 33.4646698,28.7423675 33.226758,28.6263855 C32.9888462,28.5104035 32.7301211,28.4524134 32.4505748,28.4524134 C32.1115505,28.4524134 31.8067306,28.5282467 31.536106,28.6799154 C31.2654814,28.8315841 31.0543379,29.0471884 30.9026691,29.3267348 C30.7510004,29.6062811 30.6751671,29.9244833 30.6751671,30.2813509 C30.6751671,30.6441663 30.7510004,30.9638555 30.9026691,31.2404279 C31.0543379,31.5170003 31.2654814,31.7311177 31.536106,31.8827864 C31.8067306,32.0344552 32.1115505,32.1102884 32.4505748,32.1102884 C32.7301211,32.1102884 32.9888462,32.0537852 33.226758,31.9407771 C33.4646698,31.827769 33.660944,31.6552856 33.8155867,31.4233216 L34.2884339,31.7445009 C34.1040523,32.0478384 33.8512748,32.278312 33.530094,32.4359285 C33.2089131,32.593545 32.849077,32.6723521 32.4505748,32.6723521 C31.9866468,32.6723521 31.5717944,32.5712412 31.2060051,32.3690162 Z M43.0940988,27.9349579 L43.0940988,32.6277439 L42.5141918,32.6277439 L42.5141918,28.916339 L40.6138812,32.0567585 L40.3283885,32.0567585 L38.4280778,28.9074174 L38.4280778,32.6277439 L37.8481708,32.6277439 L37.8481708,27.9349579 L38.4905293,27.9349579 L40.4800565,31.3162619 L42.5052702,27.9349579 L43.0940988,27.9349579 Z M45.6100031,32.3645553 C45.2471877,32.1593564 44.9616979,31.8753535 44.7535251,31.5125381 C44.5453523,31.1497227 44.4412674,30.7393311 44.4412674,30.2813509 C44.4412674,29.8233708 44.5453523,29.4129792 44.7535251,29.0501637 C44.9616979,28.6873483 45.2471877,28.4048323 45.6100031,28.2026073 C45.9728185,28.0003823 46.3802363,27.8992713 46.8322687,27.8992713 C47.284301,27.8992713 47.6917188,28.0003823 48.0545342,28.2026073 C48.4173496,28.4048323 48.7013525,28.6873483 48.9065514,29.0501637 C49.1117503,29.4129792 49.2143482,29.8233708 49.2143482,30.2813509 C49.2143482,30.7393311 49.1117503,31.1497227 48.9065514,31.5125381 C48.7013525,31.8753535 48.4173496,32.1593564 48.0545342,32.3645553 C47.6917188,32.5697542 47.284301,32.6723521 46.8322687,32.6723521 C46.3802363,32.6723521 45.9728185,32.5697542 45.6100031,32.3645553 Z M47.7288941,31.8827864 C47.993571,31.7311177 48.2002537,31.5155134 48.3489485,31.2359671 C48.4976434,30.9564208 48.5719897,30.6382186 48.5719897,30.2813509 C48.5719897,29.9244833 48.4976434,29.6062811 48.3489485,29.3267348 C48.2002537,29.0471884 47.993571,28.8315841 47.7288941,28.6799154 C47.4642173,28.5282467 47.1653451,28.4524134 46.8322687,28.4524134 C46.4991922,28.4524134 46.20032,28.5282467 45.9356432,28.6799154 C45.6709664,28.8315841 45.4627967,29.0471884 45.311128,29.3267348 C45.1594592,29.6062811 45.083626,29.9244833 45.083626,30.2813509 C45.083626,30.6382186 45.1594592,30.9564208 45.311128,31.2359671 C45.4627967,31.5155134 45.6709664,31.7311177 45.9356432,31.8827864 C46.20032,32.0344552 46.4991922,32.1102884 46.8322687,32.1102884 C47.1653451,32.1102884 47.4642173,32.0344552 47.7288941,31.8827864 Z M54.1837052,28.1981465 C54.5405729,28.3973976 54.820115,28.6784266 55.02234,29.0412421 C55.224565,29.4040575 55.325676,29.817423 55.325676,30.2813509 C55.325676,30.7512266 55.224565,31.167566 55.02234,31.5303814 C54.820115,31.8931968 54.5420598,32.1742259 54.1881661,32.373477 C53.8342723,32.5727281 53.4342892,32.6723521 52.9882046,32.6723521 C52.6075458,32.6723521 52.2640659,32.593545 51.9577545,32.4359285 C51.6514431,32.278312 51.4001526,32.0478384 51.2038754,31.7445009 L51.2038754,34.3585433 L50.5704385,34.3585433 L50.5704385,27.9349579 L51.1771104,27.9349579 L51.1771104,28.8628091 C51.3674398,28.5535239 51.6187304,28.3156157 51.9309895,28.1490774 C52.2432487,27.9825392 52.5956502,27.8992713 52.9882046,27.8992713 C53.4283414,27.8992713 53.8268376,27.9988954 54.1837052,28.1981465 Z M53.835761,31.8827864 C54.1034118,31.7311177 54.3130684,31.5155134 54.4647371,31.2359671 C54.6164059,30.9564208 54.6922391,30.6382186 54.6922391,30.2813509 C54.6922391,29.9244833 54.6164059,29.607768 54.4647371,29.3311956 C54.3130684,29.0546232 54.1034118,28.8390189 53.835761,28.6843762 C53.5681103,28.5297336 53.2707251,28.4524134 52.9435964,28.4524134 C52.6105199,28.4524134 52.3116478,28.5297336 52.046971,28.6843762 C51.7822941,28.8390189 51.5741245,29.0546232 51.4224557,29.3311956 C51.270787,29.607768 51.1949537,29.9244833 51.1949537,30.2813509 C51.1949537,30.6382186 51.270787,30.9564208 51.4224557,31.2359671 C51.5741245,31.5155134 51.7822941,31.7311177 52.046971,31.8827864 C52.3116478,32.0344552 52.6105199,32.1102884 52.9435964,32.1102884 C53.2707251,32.1102884 53.5681103,32.0344552 53.835761,31.8827864 Z M57.4088804,32.3690162 C57.0430911,32.1667912 56.7561143,31.8827883 56.5479415,31.5169989 C56.3397687,31.1512096 56.2356839,30.7393311 56.2356839,30.2813509 C56.2356839,29.8233708 56.3397687,29.4129792 56.5479415,29.0501637 C56.7561143,28.6873483 57.0430911,28.4048323 57.4088804,28.2026073 C57.7746697,28.0003823 58.1895221,27.8992713 58.6534501,27.8992713 C59.0579001,27.8992713 59.4192231,27.9780784 59.7374301,28.135695 C60.0556371,28.2933115 60.3069276,28.5237851 60.4913092,28.8271226 L60.018462,29.1483018 C59.8638193,28.9163379 59.6675451,28.7423675 59.4296333,28.6263855 C59.1917215,28.5104035 58.9329964,28.4524134 58.6534501,28.4524134 C58.3144258,28.4524134 58.0096059,28.5282467 57.7389813,28.6799154 C57.4683567,28.8315841 57.2572132,29.0471884 57.1055444,29.3267348 C56.9538757,29.6062811 56.8780424,29.9244833 56.8780424,30.2813509 C56.8780424,30.6441663 56.9538757,30.9638555 57.1055444,31.2404279 C57.2572132,31.5170003 57.4683567,31.7311177 57.7389813,31.8827864 C58.0096059,32.0344552 58.3144258,32.1102884 58.6534501,32.1102884 C58.9329964,32.1102884 59.1917215,32.0537852 59.4296333,31.9407771 C59.6675451,31.827769 59.8638193,31.6552856 60.018462,31.4233216 L60.4913092,31.7445009 C60.3069276,32.0478384 60.0541501,32.278312 59.7329693,32.4359285 C59.4117884,32.593545 59.0519523,32.6723521 58.6534501,32.6723521 C58.1895221,32.6723521 57.7746697,32.5712412 57.4088804,32.3690162 Z M63.4176092,30.5400787 L62.3470117,30.5400787 L62.3470117,32.6277439 L61.7135748,32.6277439 L61.7135748,27.9349579 L62.3470117,27.9349579 L62.3470117,29.9958582 L63.4265309,29.9958582 L65.0770354,27.9349579 L65.7640022,27.9349579 L63.9172214,30.2099777 L65.8978269,32.6277439 L65.1484086,32.6277439 L63.4176092,30.5400787 Z M66.8970513,27.9349579 L67.5304882,27.9349579 L67.5304882,31.6642061 L70.661986,27.9349579 L71.2240498,27.9349579 L71.2240498,32.6277439 L70.5906129,32.6277439 L70.5906129,28.8984957 L67.4680367,32.6277439 L66.8970513,32.6277439 L66.8970513,27.9349579 Z M75.9703656,32.6277439 L74.4804507,30.6649817 L72.9816141,32.6277439 L72.2678824,32.6277439 L74.1235848,30.2188994 L72.3570988,27.9349579 L73.0708306,27.9349579 L74.4804507,29.7728171 L75.8900708,27.9349579 L76.5859592,27.9349579 L74.8194732,30.2188994 L76.693019,32.6277439 L75.9703656,32.6277439 Z M84.2764184,27.9349579 L84.2764184,32.6277439 L83.6429815,32.6277439 L83.6429815,28.4970216 L80.6988382,28.4970216 L80.6988382,32.6277439 L80.0654013,32.6277439 L80.0654013,27.9349579 L84.2764184,27.9349579 Z M90.1825482,30.4776271 L86.2570238,30.4776271 C86.2927106,30.9653462 86.4800633,31.3593817 86.8190876,31.6597453 C87.1581118,31.9601089 87.5863466,32.1102884 88.1038046,32.1102884 C88.3952465,32.1102884 88.6628933,32.058246 88.9067528,31.9541596 C89.1506124,31.8500732 89.3617559,31.6969198 89.5401897,31.4946948 L89.8970556,31.9050905 C89.6888828,32.1548979 89.4286707,32.3452244 89.1164115,32.4760759 C88.8041523,32.6069274 88.4606724,32.6723521 88.0859613,32.6723521 C87.60419,32.6723521 87.1774422,32.5697542 86.8057051,32.3645553 C86.433968,32.1593564 86.1440174,31.8753535 85.9358446,31.5125381 C85.7276718,31.1497227 85.623587,30.7393311 85.623587,30.2813509 C85.623587,29.8233708 85.723211,29.4129792 85.9224621,29.0501637 C86.1217132,28.6873483 86.3953076,28.4048323 86.7432536,28.2026073 C87.0911995,28.0003823 87.4822611,27.8992713 87.9164501,27.8992713 C88.350639,27.8992713 88.7402137,28.0003823 89.0851857,28.2026073 C89.4301578,28.4048323 89.7007784,28.6858614 89.8970556,29.0457029 C90.0933328,29.4055444 90.1914699,29.817423 90.1914699,30.2813509 L90.1825482,30.4776271 Z M86.7789402,28.8761916 C86.4726288,29.1646596 86.2986584,29.5408519 86.2570238,30.0047799 L89.5847979,30.0047799 C89.5431634,29.5408519 89.369193,29.1646596 89.0628816,28.8761916 C88.7565702,28.5877236 88.3744302,28.4434918 87.9164501,28.4434918 C87.4644177,28.4434918 87.0852515,28.5877236 86.7789402,28.8761916 Z M95.2054351,28.1981465 C95.5623028,28.3973976 95.8418449,28.6784266 96.0440699,29.0412421 C96.2462949,29.4040575 96.3474059,29.817423 96.3474059,30.2813509 C96.3474059,30.7512266 96.2462949,31.167566 96.0440699,31.5303814 C95.8418449,31.8931968 95.5637897,32.1742259 95.209896,32.373477 C94.8560022,32.5727281 94.4560191,32.6723521 94.0099345,32.6723521 C93.6292757,32.6723521 93.2857958,32.593545 92.9794844,32.4359285 C92.673173,32.278312 92.4218825,32.0478384 92.2256052,31.7445009 L92.2256052,34.3585433 L91.5921684,34.3585433 L91.5921684,27.9349579 L92.1988403,27.9349579 L92.1988403,28.8628091 C92.3891697,28.5535239 92.6404602,28.3156157 92.9527194,28.1490774 C93.2649786,27.9825392 93.6173801,27.8992713 94.0099345,27.8992713 C94.4500713,27.8992713 94.8485675,27.9988954 95.2054351,28.1981465 Z M94.8574909,31.8827864 C95.1251416,31.7311177 95.3347982,31.5155134 95.486467,31.2359671 C95.6381357,30.9564208 95.713969,30.6382186 95.713969,30.2813509 C95.713969,29.9244833 95.6381357,29.607768 95.486467,29.3311956 C95.3347982,29.0546232 95.1251416,28.8390189 94.8574909,28.6843762 C94.5898402,28.5297336 94.292455,28.4524134 93.9653263,28.4524134 C93.6322498,28.4524134 93.3333777,28.5297336 93.0687008,28.6843762 C92.804024,28.8390189 92.5958543,29.0546232 92.4441856,29.3311956 C92.2925168,29.607768 92.2166836,29.9244833 92.2166836,30.2813509 C92.2166836,30.6382186 92.2925168,30.9564208 92.4441856,31.2359671 C92.5958543,31.5155134 92.804024,31.7311177 93.0687008,31.8827864 C93.3333777,32.0344552 93.6322498,32.1102884 93.9653263,32.1102884 C94.292455,32.1102884 94.5898402,32.0344552 94.8574909,31.8827864 Z M101.816375,30.4776271 L97.8908507,30.4776271 C97.9265374,30.9653462 98.1138901,31.3593817 98.4529144,31.6597453 C98.7919387,31.9601089 99.2201734,32.1102884 99.7376315,32.1102884 C100.029073,32.1102884 100.29672,32.058246 100.54058,31.9541596 C100.784439,31.8500732 100.995583,31.6969198 101.174017,31.4946948 L101.530882,31.9050905 C101.32271,32.1548979 101.062498,32.3452244 100.750238,32.4760759 C100.437979,32.6069274 100.094499,32.6723521 99.7197882,32.6723521 C99.2380169,32.6723521 98.811269,32.5697542 98.4395319,32.3645553 C98.0677948,32.1593564 97.7778442,31.8753535 97.5696714,31.5125381 C97.3614986,31.1497227 97.2574138,30.7393311 97.2574138,30.2813509 C97.2574138,29.8233708 97.3570378,29.4129792 97.5562889,29.0501637 C97.75554,28.6873483 98.0291345,28.4048323 98.3770804,28.2026073 C98.7250263,28.0003823 99.1160879,27.8992713 99.5502769,27.8992713 C99.9844659,27.8992713 100.374041,28.0003823 100.719013,28.2026073 C101.063985,28.4048323 101.334605,28.6858614 101.530882,29.0457029 C101.72716,29.4055444 101.825297,29.817423 101.825297,30.2813509 L101.816375,30.4776271 Z M98.412767,28.8761916 C98.1064556,29.1646596 97.9324852,29.5408519 97.8908507,30.0047799 L101.218625,30.0047799 C101.17699,29.5408519 101.00302,29.1646596 100.696708,28.8761916 C100.390397,28.5877236 100.008257,28.4434918 99.5502769,28.4434918 C99.0982446,28.4434918 98.7190784,28.5877236 98.412767,28.8761916 Z M107.169363,31.3519485 C107.169363,31.7623463 107.017696,32.0775746 106.714359,32.297643 C106.411021,32.5177114 105.958996,32.6277439 105.358269,32.6277439 L103.225995,32.6277439 L103.225995,27.9349579 L105.295817,27.9349579 C105.831119,27.9349579 106.250432,28.0390428 106.553769,28.2472155 C106.857107,28.4553883 107.008773,28.7527736 107.008773,29.1393802 C107.008773,29.3951353 106.938888,29.6137135 106.799115,29.7951212 C106.659341,29.9765289 106.464554,30.1118392 106.214747,30.2010561 C106.851161,30.3497509 107.169363,30.7333779 107.169363,31.3519485 Z M103.841589,30.0226232 L105.251209,30.0226232 C105.614024,30.0226232 105.89208,29.9542246 106.085383,29.8174253 C106.278686,29.680626 106.375336,29.4813779 106.375336,29.219675 C106.375336,28.9579721 106.278686,28.7616978 106.085383,28.6308463 C105.89208,28.4999949 105.614024,28.4345701 105.251209,28.4345701 L103.841589,28.4345701 L103.841589,30.0226232 Z M106.241512,31.9318555 C106.443737,31.801004 106.544848,31.5958082 106.544848,31.3162619 C106.544848,31.0367156 106.452658,30.8300328 106.268277,30.6962075 C106.083895,30.5623821 105.792457,30.4954704 105.393955,30.4954704 L103.841589,30.4954704 L103.841589,32.1281317 L105.331504,32.1281317 C105.735954,32.1281317 106.039287,32.062707 106.241512,31.9318555 Z M109.364088,32.3645553 C109.001272,32.1593564 108.715783,31.8753535 108.50761,31.5125381 C108.299437,31.1497227 108.195352,30.7393311 108.195352,30.2813509 C108.195352,29.8233708 108.299437,29.4129792 108.50761,29.0501637 C108.715783,28.6873483 109.001272,28.4048323 109.364088,28.2026073 C109.726903,28.0003823 110.134321,27.8992713 110.586353,27.8992713 C111.038386,27.8992713 111.445804,28.0003823 111.808619,28.2026073 C112.171434,28.4048323 112.455437,28.6873483 112.660636,29.0501637 C112.865835,29.4129792 112.968433,29.8233708 112.968433,30.2813509 C112.968433,30.7393311 112.865835,31.1497227 112.660636,31.5125381 C112.455437,31.8753535 112.171434,32.1593564 111.808619,32.3645553 C111.445804,32.5697542 111.038386,32.6723521 110.586353,32.6723521 C110.134321,32.6723521 109.726903,32.5697542 109.364088,32.3645553 Z M111.482979,31.8827864 C111.747656,31.7311177 111.954338,31.5155134 112.103033,31.2359671 C112.251728,30.9564208 112.326074,30.6382186 112.326074,30.2813509 C112.326074,29.9244833 112.251728,29.6062811 112.103033,29.3267348 C111.954338,29.0471884 111.747656,28.8315841 111.482979,28.6799154 C111.218302,28.5282467 110.91943,28.4524134 110.586353,28.4524134 C110.253277,28.4524134 109.954405,28.5282467 109.689728,28.6799154 C109.425051,28.8315841 109.216881,29.0471884 109.065213,29.3267348 C108.913544,29.6062811 108.837711,29.9244833 108.837711,30.2813509 C108.837711,30.6382186 108.913544,30.9564208 109.065213,31.2359671 C109.216881,31.5155134 109.425051,31.7311177 109.689728,31.8827864 C109.954405,32.0344552 110.253277,32.1102884 110.586353,32.1102884 C110.91943,32.1102884 111.218302,32.0344552 111.482979,31.8827864 Z M117.380187,30.5846869 C117.561595,30.7750163 117.652297,31.0069768 117.652297,31.2805753 C117.652297,31.5541738 117.558621,31.7980297 117.371265,32.0121503 C117.18391,32.2262709 116.929646,32.3913197 116.608465,32.5073017 C116.287284,32.6232837 115.933395,32.6812738 115.546789,32.6812738 C115.207765,32.6812738 114.874693,32.6322052 114.547564,32.5340666 C114.220436,32.435928 113.934946,32.2916962 113.691086,32.1013668 L113.905206,31.6285195 C114.119326,31.7891099 114.36913,31.9140117 114.654624,32.0032287 C114.940118,32.0924456 115.228582,32.1370534 115.520024,32.1370534 C115.954213,32.1370534 116.309588,32.0552724 116.586161,31.8917081 C116.862733,31.7281437 117.001017,31.5065917 117.001017,31.2270454 C117.001017,30.9772381 116.888011,30.7824507 116.661995,30.6426776 C116.435978,30.5029044 116.126698,30.4330189 115.734143,30.4330189 L114.931195,30.4330189 L114.931195,29.9690933 L115.698457,29.9690933 C116.049377,29.9690933 116.331893,29.9021816 116.546013,29.7683562 C116.760134,29.6345309 116.867192,29.4546128 116.867192,29.2285966 C116.867192,28.9787893 116.746751,28.782515 116.505866,28.639768 C116.26498,28.4970209 115.951239,28.4256485 115.564632,28.4256485 C115.05907,28.4256485 114.559462,28.5535241 114.065795,28.8092793 L113.887363,28.3185887 C114.446455,28.0271468 115.026356,27.881428 115.627084,27.881428 C115.983951,27.881428 116.306614,27.9334705 116.595082,28.0375569 C116.88355,28.1416433 117.109563,28.2888489 117.273127,28.4791784 C117.436692,28.6695078 117.518473,28.8895728 117.518473,29.1393802 C117.518473,29.3772919 117.436692,29.5884355 117.273127,29.7728171 C117.109563,29.9571987 116.888011,30.0939959 116.608465,30.1832128 C116.941541,30.2605341 117.198779,30.3943575 117.380187,30.5846869 Z M119.802414,32.3645553 C119.439599,32.1593564 119.154109,31.8753535 118.945936,31.5125381 C118.737763,31.1497227 118.633678,30.7393311 118.633678,30.2813509 C118.633678,29.8233708 118.737763,29.4129792 118.945936,29.0501637 C119.154109,28.6873483 119.439599,28.4048323 119.802414,28.2026073 C120.16523,28.0003823 120.572647,27.8992713 121.02468,27.8992713 C121.476712,27.8992713 121.88413,28.0003823 122.246945,28.2026073 C122.609761,28.4048323 122.893764,28.6873483 123.098962,29.0501637 C123.304161,29.4129792 123.406759,29.8233708 123.406759,30.2813509 C123.406759,30.7393311 123.304161,31.1497227 123.098962,31.5125381 C122.893764,31.8753535 122.609761,32.1593564 122.246945,32.3645553 C121.88413,32.5697542 121.476712,32.6723521 121.02468,32.6723521 C120.572647,32.6723521 120.16523,32.5697542 119.802414,32.3645553 Z M121.921305,31.8827864 C122.185982,31.7311177 122.392665,31.5155134 122.54136,31.2359671 C122.690054,30.9564208 122.764401,30.6382186 122.764401,30.2813509 C122.764401,29.9244833 122.690054,29.6062811 122.54136,29.3267348 C122.392665,29.0471884 122.185982,28.8315841 121.921305,28.6799154 C121.656628,28.5282467 121.357756,28.4524134 121.02468,28.4524134 C120.691603,28.4524134 120.392731,28.5282467 120.128054,28.6799154 C119.863377,28.8315841 119.655208,29.0471884 119.503539,29.3267348 C119.35187,29.6062811 119.276037,29.9244833 119.276037,30.2813509 C119.276037,30.6382186 119.35187,30.9564208 119.503539,31.2359671 C119.655208,31.5155134 119.863377,31.7311177 120.128054,31.8827864 C120.392731,32.0344552 120.691603,32.1102884 121.02468,32.1102884 C121.357756,32.1102884 121.656628,32.0344552 121.921305,31.8827864 Z M126.466884,30.5400787 L125.396286,30.5400787 L125.396286,32.6277439 L124.762849,32.6277439 L124.762849,27.9349579 L125.396286,27.9349579 L125.396286,29.9958582 L126.475806,29.9958582 L128.12631,27.9349579 L128.813277,27.9349579 L126.966496,30.2099777 L128.947102,32.6277439 L128.197683,32.6277439 L126.466884,30.5400787 Z" id="Cервис-морских-перев-Copy" fill="#364F6B" opacity="0.800000012"></path>
                        <path d="M1.68050281,2 L6.97335035,2 L10.9729229,14.3781513 L11.020822,14.3781513 L14.8048488,2 L20.0976963,2 L20.0976963,20 L16.5771145,20 L16.5771145,7.24369748 L16.5292154,7.24369748 L12.3380465,20 L9.4401526,20 L5.24898373,7.3697479 L5.20108466,7.3697479 L5.20108466,20 L1.68050281,20 L1.68050281,2 Z M30.477057,13.0420168 L34.9077212,13.0420168 L32.752263,6.43697479 L32.7043639,6.43697479 L30.477057,13.0420168 Z M30.8363,2 L34.6921754,2 L41.0867016,20 L37.1829272,20 L35.8896522,15.9915966 L29.495126,15.9915966 L28.153952,20 L24.3699252,20 L30.8363,2 Z M49.0950582,10.1428571 L53.2143785,10.1428571 C54.0765661,10.1428571 54.7231971,9.94117849 55.1542909,9.53781513 C55.5853847,9.13445176 55.8009284,8.47899613 55.8009284,7.57142857 C55.8009284,6.69747462 55.5853847,6.06302718 55.1542909,5.66806723 C54.7231971,5.27310727 54.0765661,5.07563025 53.2143785,5.07563025 L49.0950582,5.07563025 L49.0950582,10.1428571 Z M45.334981,2 L54.5555525,2 C55.3219415,2 56.0124796,2.1302508 56.6271874,2.3907563 C57.2418953,2.65126181 57.7687798,3.00840109 58.2078568,3.46218487 C58.6469338,3.91596866 58.982224,4.44117349 59.2137373,5.03781513 C59.4452507,5.63445676 59.5610056,6.27730748 59.5610056,6.96638655 C59.5610056,8.02521538 59.3494535,8.94117261 58.9263429,9.71428571 C58.5032323,10.4873988 57.8126943,11.0756282 56.854708,11.4789916 L56.854708,11.5294118 C57.3177347,11.6638662 57.7009234,11.8697465 58.0042858,12.1470588 C58.3076481,12.4243711 58.5551241,12.7520989 58.7467214,13.1302521 C58.9383186,13.5084053 59.0780229,13.9243675 59.1658383,14.3781513 C59.2536537,14.831935 59.3135269,15.285712 59.3454598,15.7394958 C59.3614262,16.0252115 59.3773924,16.3613426 59.3933589,16.7478992 C59.4093253,17.1344557 59.4372661,17.5294097 59.4771822,17.9327731 C59.5170983,18.3361365 59.5809631,18.7184856 59.6687785,19.0798319 C59.7565939,19.4411783 59.8883151,19.7478979 60.0639459,20 L56.3038687,20 C56.096305,19.4285686 55.9685754,18.7479031 55.9206761,17.9579832 C55.8727768,17.1680633 55.8009289,16.4117683 55.7051303,15.6890756 C55.5773988,14.7478945 55.3059734,14.0588257 54.890846,13.6218487 C54.4757186,13.1848718 53.7971552,12.9663866 52.8551354,12.9663866 L49.0950582,12.9663866 L49.0950582,20 L45.334981,20 L45.334981,2 Z M65.3899544,2 L69.1500316,2 L69.1500316,20 L65.3899544,20 L65.3899544,2 Z M75.2184758,2 L78.9546034,2 L86.0915653,14.0756303 L86.1394644,14.0756303 L86.1394644,2 L89.6600462,2 L89.6600462,20 L85.899969,20 L78.7869567,7.94957983 L78.7390576,7.94957983 L78.7390576,20 L75.2184758,20 L75.2184758,2 Z M95.7284903,2 L108.517543,2 L108.517543,5.32773109 L99.4885676,5.32773109 L99.4885676,9.18487395 L107.775107,9.18487395 L107.775107,12.2605042 L99.4885676,12.2605042 L99.4885676,16.6722689 L108.709139,16.6722689 L108.709139,20 L95.7284903,20 L95.7284903,2 Z M117.795225,5.32773109 L112.670024,5.32773109 L112.670024,2 L126.680503,2 L126.680503,5.32773109 L121.555302,5.32773109 L121.555302,20 L117.795225,20 L117.795225,5.32773109 Z" id="MARINET-Copy" fill="#364F6B"></path>
                    </g>
                </g>
            </g>
        </g>
    </g>
</svg>