<?xml version="1.0" encoding="UTF-8"?>
<svg width="116px" height="16px" viewBox="0 0 116 16" version="1.1" xmlns="http://www.w3.org/2000/svg" xmlns:xlink="http://www.w3.org/1999/xlink">
    <!-- Generator: Sketch 48.2 (47327) - http://www.bohemiancoding.com/sketch -->
    <title>Logo_footer</title>
    <desc>Created with Sketch.</desc>
    <defs>
        <rect id="path-1" x="0" y="0" width="116" height="16"></rect>
    </defs>
    <g id="Эспортируемые-элементы" stroke="none" stroke-width="1" fill="none" fill-rule="evenodd" transform="translate(-68.000000, -319.000000)">
        <g id="Logo_footer" transform="translate(68.000000, 319.000000)">
            <g id="MARINET">
                <mask id="mask-2" fill="white">
                    <use xlink:href="#path-1"></use>
                </mask>
                <use id="Mask" fill="#FFAF2B" opacity="0" xlink:href="#path-1"></use>
                <path d="M0,0 L4.9117625,0 L8.62336584,11.0028011 L8.66781618,11.0028011 L12.179393,0 L17.0911555,0 L17.0911555,16 L13.8240555,16 L13.8240555,4.66106443 L13.7796052,4.66106443 L9.89020051,16 L7.20095498,16 L3.31155028,4.77310924 L3.26709994,4.77310924 L3.26709994,16 L0,16 L0,0 Z M26.7232023,9.81512605 L30.8348586,9.81512605 L28.8345934,3.94397759 L28.790143,3.94397759 L26.7232023,9.81512605 Z M27.0565798,0 L30.6348321,0 L36.5689524,16 L32.9462498,16 L31.7460906,12.4369748 L25.8119703,12.4369748 L24.5673608,16 L21.055784,16 L27.0565798,0 Z M44.0007074,7.23809524 L47.8234366,7.23809524 C48.6235467,7.23809524 49.2236203,7.05882532 49.6236753,6.70028011 C50.0237304,6.3417349 50.2237549,5.75910768 50.2237549,4.95238095 C50.2237549,4.175533 50.0237304,3.61157972 49.6236753,3.2605042 C49.2236203,2.90942868 48.6235467,2.73389356 47.8234366,2.73389356 L44.0007074,2.73389356 L44.0007074,7.23809524 Z M40.5113558,0 L49.0680461,0 C49.7792551,0 50.4200744,0.115778487 50.9905233,0.347338936 C51.5609721,0.578899384 52.049921,0.896356527 52.4573845,1.29971989 C52.8648479,1.70308325 53.1759972,2.16993199 53.3908416,2.70028011 C53.605686,3.23062824 53.7131065,3.80205109 53.7131065,4.41456583 C53.7131065,5.355747 53.5167862,6.1699312 53.1241395,6.85714286 C52.7314929,7.54435451 52.0906736,8.0672251 51.2016624,8.42577031 L51.2016624,8.47058824 C51.6313511,8.59010331 51.9869503,8.77310801 52.2684705,9.01960784 C52.5499907,9.26610768 52.7796485,9.55742129 52.9574508,9.89355742 C53.135253,10.2296936 53.2648985,10.5994378 53.3463912,11.0028011 C53.4278839,11.4061645 53.4834463,11.8095218 53.51308,12.2128852 C53.5278969,12.4668547 53.5427135,12.7656379 53.5575304,13.1092437 C53.5723472,13.4528495 53.5982763,13.8039198 53.6353185,14.162465 C53.6723606,14.5210102 53.7316271,14.8608761 53.8131198,15.1820728 C53.8946125,15.5032696 54.0168497,15.7759092 54.1798351,16 L50.6904835,16 C50.4978644,15.492061 50.3793313,14.887025 50.3348808,14.1848739 C50.2904302,13.4827229 50.2237553,12.8104607 50.1348542,12.1680672 C50.0163194,11.3314617 49.7644367,10.7189562 49.3791985,10.3305322 C48.9939603,9.94210824 48.3642534,9.74789916 47.490059,9.74789916 L44.0007074,9.74789916 L44.0007074,16 L40.5113558,16 L40.5113558,0 Z M59.1223711,0 L62.6117227,0 L62.6117227,16 L59.1223711,16 L59.1223711,0 Z M68.2432389,0 L71.7103654,0 L78.333466,10.7338936 L78.3779163,10.7338936 L78.3779163,0 L81.6450163,0 L81.6450163,16 L78.1556646,16 L71.5547892,5.28851541 L71.5103389,5.28851541 L71.5103389,16 L68.2432389,16 L68.2432389,0 Z M87.2765325,0 L99.1447731,0 L99.1447731,2.95798319 L90.7658841,2.95798319 L90.7658841,6.38655462 L98.4557928,6.38655462 L98.4557928,9.12044818 L90.7658841,9.12044818 L90.7658841,13.0420168 L99.3225744,13.0420168 L99.3225744,16 L87.2765325,16 L87.2765325,0 Z M107.754462,2.95798319 L102.998276,2.95798319 L102.998276,0 L116,0 L116,2.95798319 L111.243814,2.95798319 L111.243814,16 L107.754462,16 L107.754462,2.95798319 Z" fill="#E6EBEE" mask="url(#mask-2)"></path>
            </g>
        </g>
    </g>
</svg>