<svg xmlns="http://www.w3.org/2000/svg" xmlns:xlink="http://www.w3.org/1999/xlink" viewBox="0 0 960 910"><defs><style>.cls-1{fill:url(#Безымянный_градиент_442);}.cls-2{fill:url(#Безымянный_градиент_43);}.cls-3{fill:url(#Безымянный_градиент_52);}.cls-4{fill:#4fcfd0;opacity:0.8;}.cls-5{fill:#04bdbe;}.cls-6{fill:#a9ebd7;opacity:0.3;}</style><linearGradient id="Безымянный_градиент_442" x1="480" y1="910" x2="480" gradientUnits="userSpaceOnUse"><stop offset="0" stop-color="#9aebd7"/><stop offset="0.14" stop-color="#87e4d4"/><stop offset="0.44" stop-color="#64d6ce"/><stop offset="0.69" stop-color="#4ecdca"/><stop offset="0.85" stop-color="#46cac9"/></linearGradient><linearGradient id="Безымянный_градиент_43" x1="-552.99" y1="580.42" x2="-552.99" y2="474" gradientTransform="matrix(-1, 0, 0, 1, -146, 0)" gradientUnits="userSpaceOnUse"><stop offset="0" stop-color="#fff" stop-opacity="0"/><stop offset="1" stop-color="#fff" stop-opacity="0.15"/></linearGradient><linearGradient id="Безымянный_градиент_52" x1="-749.57" y1="504" x2="-749.57" y2="436" xlink:href="#Безымянный_градиент_43"/></defs><title>Ресурс 28</title><g id="Слой_2" data-name="Слой 2"><g id="Слой_1-2" data-name="Слой 1"><rect class="cls-1" width="960" height="910"/><path class="cls-2" d="M349.36,517.71h15c-.12-1.26-.18-2.53-.18-3.82a39.89,39.89,0,0,1,79.7-2.46,36.3,36.3,0,0,1,45.52,53.5,31.33,31.33,0,0,1-27,15.48h-113A31.35,31.35,0,0,1,318,549.07h0A31.35,31.35,0,0,1,349.36,517.71Z"/><path class="cls-3" d="M566.74,463.93h9.61c-.08-.8-.12-1.62-.12-2.44a25.49,25.49,0,0,1,50.93-1.57,23.2,23.2,0,0,1,29.09,34.19A20,20,0,0,1,639,504H566.74a20,20,0,0,1-20-20h0A20,20,0,0,1,566.74,463.93Z"/><polygon class="cls-4" points="960 474 892 522 848 526 776 598 686 562 594 614 456 632 418 626 326 686 280 677 0 677 0 910 960 910 960 474"/><polygon class="cls-5" points="960 731 960 910 0 910 0 720 960 731"/><path class="cls-6" d="M661.87,426.75s20.27,3.2,23.47,17.06c0,0,13.87-20.27,28.8-19.2,0,0-21.33-4.27-26.67,7.47C687.47,432.08,668.27,417.15,661.87,426.75Z"/><path class="cls-6" d="M832.63,445.06s12.43,2,14.4,10.47c0,0,8.51-12.43,17.67-11.78,0,0-13.09-2.62-16.36,4.58C848.33,448.33,836.55,439.17,832.63,445.06Z"/><path class="cls-6" d="M776.94,490.68s15.3,3.2,17.72,17.06c0,0,10.47-20.27,21.75-19.2,0,0-16.11-4.27-20.14,7.47C796.27,496,781.77,481.09,776.94,490.68Z"/></g></g></svg>