<svg xmlns="http://www.w3.org/2000/svg" viewBox="0 0 372.98 790"><defs><style>.cls-1{fill:#08abb2;}.cls-2{fill:#00709d;}.cls-3{fill:#006995;}.cls-4{fill:#03abb3;}.cls-5{fill:#02aeb5;}.cls-6{fill:#02acb4;}.cls-7{fill:#00b0b6;}.cls-8{fill:#09abb3;}.cls-9{fill:#00b1b7;}.cls-10{fill:#05a7b1;}</style></defs><title>Главная_корабль_правая половина_1</title><g id="Слой_2" data-name="Слой 2"><g id="Слой_1-2" data-name="Слой 1"><path class="cls-1" d="M334,404.35V331H300V181H135v-.44L217.56,98H275V57H35.85L31.72,0H0V790H264.17c11.92-55,58-257.95,108.81-356.83C373,433.17,359.09,421.53,334,404.35ZM135,98h68.42L135,166.42Z"/><path class="cls-2" d="M168.89,588.49s-18.53,66.74-20,98.51l45.54.4s13.24-58.4,23.81-75.06Z"/><polygon class="cls-3" points="198.59 601.98 180.72 686.36 147.09 685.63 168.88 588.32 198.59 601.98"/><rect class="cls-4" x="225" y="256" width="75" height="75" transform="translate(525 587) rotate(-180)"/><rect class="cls-5" x="150" y="256" width="75" height="75" transform="translate(375 587) rotate(-180)"/><rect class="cls-6" x="75" y="256" width="75" height="75" transform="translate(225 587) rotate(-180)"/><rect class="cls-5" y="256" width="75" height="75" transform="translate(75 587) rotate(-180)"/><rect class="cls-5" x="225" y="181" width="75" height="75" transform="translate(525 437) rotate(-180)"/><rect class="cls-7" y="181" width="75" height="75" transform="translate(75 437) rotate(-180)"/><rect class="cls-7" y="331" width="334" height="96"/><path class="cls-8" d="M264.17,790c11.92-55,58-257.95,108.81-356.83,0,0-159-133.28-373-163.38V790Z"/><path class="cls-9" d="M347.51,489.1s-139-115-347.51-143v20.24s195.63,26,340.82,141.86Z"/><path class="cls-9" d="M168.89,588.49s-16.25,65.2-20,98.51l45.54.4s13.24-58.4,23.81-75.06Z"/><path class="cls-10" d="M198.85,603.16,179.5,687H148.33s5.37-33.32,8.6-49.44c2.32-11.59,11.82-49.44,11.82-49.44Z"/><rect class="cls-7" x="150" y="181" width="75" height="75" transform="translate(375 437) rotate(-180)"/><rect class="cls-5" x="75" y="181" width="75" height="75" transform="translate(225 437) rotate(-180)"/><path class="cls-1" d="M35.85,57,31.72,0H0V181H135v-.44L217.56,98H275V57ZM135,166.42V98h68.42Z"/></g></g></svg>